<?xml version="1.0" encoding="UTF-8"?>
<svg className="fill-bronze bg-red-50 m-0"  version="1.1" viewBox="95 10 500 500" xmlns="http://www.w3.org/2000/svg" xmlns:xlink="http://www.w3.org/1999/xlink">

 <g>
  <path d="m350 350c23.207 0 45.461-9.2188 61.871-25.629s25.629-38.664 25.629-61.871-9.2188-45.461-25.629-61.871-38.664-25.629-61.871-25.629-45.461 9.2188-61.871 25.629-25.629 38.664-25.629 61.871 9.2188 45.461 25.629 61.871 38.664 25.629 61.871 25.629zm-49.961-93.711c1.6406-1.6562 3.8789-2.5898 6.2109-2.5898s4.5703 0.93359 6.2109 2.5898l24.414 24.5 50.664-50.75c3.4297-3.4336 8.9922-3.4336 12.422 0 3.4336 3.4297 3.4336 8.9922 0 12.422l-56.875 56.875c-1.6406 1.6562-3.8789 2.5898-6.2109 2.5898s-4.5703-0.93359-6.2109-2.5898l-30.625-30.625c-1.6562-1.6406-2.5898-3.8789-2.5898-6.2109s0.93359-4.5703 2.5898-6.2109z"/>
  <path d="m533.75 262.5h17.5l-19.074-23.801-8.75-11.375c-1.6602-2.0703-4.1719-3.2734-6.8242-3.2734-2.6562 0-5.1641 1.2031-6.8281 3.2734l-12.422 15.051-16.102 20.125h17.5c0 39.449-15.672 77.285-43.566 105.18-27.898 27.895-65.734 43.566-105.18 43.566h-227.5c-4.832 0-8.75 3.918-8.75 8.75v17.5c0 2.3203 0.92188 4.5469 2.5625 6.1875s3.8672 2.5625 6.1875 2.5625h227.5c48.734 0 95.473-19.359 129.93-53.82 34.461-34.457 53.82-81.195 53.82-129.93z"/>
  <path d="m167.82 286.39 8.75 11.375c1.6602 2.0703 4.1719 3.2734 6.8242 3.2734 2.6562 0 5.1641-1.2031 6.8281-3.2734l12.074-15.051 16.449-20.211h-17.5c-0.046875-45.438 20.676-88.402 56.266-116.66 35.586-28.25 82.133-38.688 126.38-28.332 44.242 10.352 81.328 40.355 100.68 81.465 1.2461 2.5742 3.668 4.3828 6.4961 4.8359 2.8242 0.45312 5.6914-0.50391 7.6797-2.5625l13.125-13.125c2.6953-2.668 3.3633-6.7656 1.6641-10.148-18.832-36.762-49.5-66.105-87.055-83.297-37.555-17.191-79.809-21.23-119.94-11.465-40.129 9.7695-75.801 32.773-101.25 65.301-25.453 32.527-39.207 72.684-39.039 113.98h-17.5l19.074 23.801z"/>
  <path d="m577.5 421.93-35-28.176v17.5h-57.051c-5.5508 5.0664-11.391 9.7969-17.5 14.176-11.184 8.1992-23.211 15.18-35.875 20.824h110.43v17.5l35-28.176c2.0703-1.6602 3.2734-4.1719 3.2734-6.8242s-1.2031-5.1641-3.2734-6.8242z"/>
  <path d="m210.52 314.48-26.773 26.773c9.3281 19.594 22.066 37.371 37.625 52.5h58.625c-32.059-17.059-56.77-45.254-69.477-79.273z"/>

 </g>
</svg>
